<svg width="25" height="24" viewBox="0 0 25 24" fill="none" xmlns="http://www.w3.org/2000/svg">
<path d="M17.972 14.382C17.675 14.233 16.214 13.515 15.942 13.415C15.669 13.316 15.471 13.267 15.272 13.565C15.075 13.862 14.505 14.531 14.332 14.729C14.159 14.928 13.985 14.952 13.688 14.804C13.391 14.654 12.433 14.341 11.298 13.329C10.415 12.541 9.81801 11.568 9.64501 11.27C9.47201 10.973 9.62701 10.812 9.77501 10.664C9.90901 10.531 10.073 10.317 10.221 10.144C10.37 9.97004 10.419 9.84604 10.519 9.64704C10.618 9.44904 10.569 9.27604 10.494 9.12704C10.419 8.97804 9.82501 7.51504 9.57801 6.92004C9.33601 6.34104 9.09101 6.42004 8.90901 6.41004C8.73601 6.40204 8.53801 6.40004 8.33901 6.40004C8.14101 6.40004 7.81901 6.47404 7.54701 6.77204C7.27501 7.06904 6.50701 7.78804 6.50701 9.25104C6.50701 10.713 7.57201 12.126 7.72001 12.325C7.86901 12.523 9.81601 15.525 12.797 16.812C13.506 17.118 14.059 17.301 14.491 17.437C15.203 17.664 15.851 17.632 16.362 17.555C16.933 17.47 18.12 16.836 18.368 16.142C18.616 15.448 18.616 14.853 18.541 14.729C18.467 14.605 18.27 14.531 17.972 14.382ZM12.55 21.785H12.546C10.7758 21.7852 9.03809 21.3092 7.51501 20.407L7.15401 20.193L3.41301 21.175L4.41101 17.527L4.17601 17.153C3.18645 15.5773 2.66295 13.7537 2.66601 11.893C2.66701 6.44304 7.10201 2.00904 12.554 2.00904C15.194 2.00904 17.676 3.03904 19.542 4.90704C20.4627 5.82366 21.1924 6.91377 21.689 8.11428C22.1856 9.3148 22.4391 10.6019 22.435 11.901C22.432 17.351 17.998 21.785 12.55 21.785ZM20.963 3.48804C19.8612 2.37896 18.5502 1.49958 17.1061 0.900841C15.662 0.302105 14.1133 -0.00407625 12.55 4.09775e-05C5.99501 4.09775e-05 0.660007 5.33504 0.657007 11.892C0.657007 13.988 1.20401 16.034 2.24501 17.837L0.557007 24L6.86201 22.346C8.6056 23.296 10.5594 23.7938 12.545 23.794H12.55C19.104 23.794 24.44 18.459 24.443 11.901C24.4478 10.3383 24.1428 8.79014 23.5454 7.34607C22.9481 5.90201 22.0704 4.59071 20.963 3.48804Z" fill="white" fill-opacity="0.9"/>
</svg>